<svg width="24" height="24" viewBox="0 0 24 24" fill="none" xmlns="http://www.w3.org/2000/svg">
<path d="M14.8278 7.75884L9.1718 13.4158C9.07629 13.5081 9.00011 13.6184 8.9477 13.7404C8.89529 13.8624 8.8677 13.9937 8.86655 14.1264C8.86539 14.2592 8.8907 14.3909 8.94098 14.5138C8.99126 14.6367 9.06551 14.7483 9.1594 14.8422C9.2533 14.9361 9.36495 15.0104 9.48784 15.0607C9.61074 15.1109 9.74242 15.1362 9.8752 15.1351C10.008 15.1339 10.1392 15.1064 10.2612 15.0539C10.3832 15.0015 10.4936 14.9254 10.5858 14.8298L16.2428 9.17384C16.8055 8.61118 17.1216 7.84806 17.1216 7.05234C17.1216 6.25662 16.8055 5.4935 16.2428 4.93084C15.6801 4.36818 14.917 4.05209 14.1213 4.05209C13.3256 4.05209 12.5625 4.36818 11.9998 4.93084L6.3428 10.5878C5.86887 11.05 5.49143 11.6016 5.23236 12.2107C4.97328 12.8199 4.83774 13.4744 4.8336 14.1363C4.82945 14.7982 4.95678 15.4544 5.2082 16.0667C5.45961 16.6791 5.83012 17.2354 6.29821 17.7034C6.76631 18.1715 7.32268 18.5419 7.93505 18.7932C8.54742 19.0445 9.20361 19.1718 9.86553 19.1675C10.5275 19.1633 11.182 19.0277 11.7911 18.7685C12.4002 18.5094 12.9517 18.1318 13.4138 17.6578L19.0708 12.0018L20.4848 13.4158L14.8278 19.0728C14.1778 19.7229 13.406 20.2385 12.5567 20.5903C11.7074 20.9421 10.7971 21.1232 9.8778 21.1232C8.9585 21.1232 8.0482 20.9421 7.19888 20.5903C6.34956 20.2385 5.57784 19.7229 4.9278 19.0728C4.27776 18.4228 3.76211 17.6511 3.41031 16.8018C3.05851 15.9524 2.87744 15.0421 2.87744 14.1228C2.87744 13.2035 3.05851 12.2932 3.41031 11.4439C3.76211 10.5946 4.27776 9.82288 4.9278 9.17284L10.5858 3.51684C11.5288 2.60605 12.7918 2.10208 14.1028 2.11347C15.4138 2.12486 16.6679 2.65071 17.5949 3.57775C18.5219 4.50479 19.0478 5.75885 19.0592 7.06983C19.0706 8.38082 18.5666 9.64383 17.6558 10.5868L11.9998 16.2458C11.7211 16.5244 11.3903 16.7454 11.0263 16.8962C10.6622 17.0469 10.272 17.1245 9.87794 17.1244C9.4839 17.1244 9.09372 17.0467 8.72969 16.8959C8.36566 16.7451 8.0349 16.524 7.7563 16.2453C7.4777 15.9667 7.25671 15.6359 7.10596 15.2718C6.95521 14.9077 6.87765 14.5175 6.87769 14.1235C6.87774 13.7294 6.9554 13.3393 7.10623 12.9752C7.25707 12.6112 7.47813 12.2804 7.7568 12.0018L13.4138 6.34484L14.8278 7.75884Z" fill="#808080"/>
</svg>
