<svg width="28" height="28" viewBox="0 0 28 28" fill="none" xmlns="http://www.w3.org/2000/svg">
<path d="M17.627 9.72033L11.907 15.4537L9.707 13.2537C9.58747 13.1141 9.44038 13.0007 9.27496 12.9207C9.10954 12.8407 8.92936 12.7957 8.74574 12.7886C8.56211 12.7815 8.379 12.8124 8.2079 12.8795C8.0368 12.9465 7.8814 13.0482 7.75146 13.1781C7.62152 13.3081 7.51985 13.4635 7.45282 13.6346C7.38578 13.8057 7.35484 13.9888 7.36193 14.1724C7.36903 14.356 7.414 14.5362 7.49403 14.7016C7.57406 14.867 7.68742 15.0141 7.827 15.1337L10.9603 18.2803C11.0849 18.4039 11.2327 18.5017 11.3951 18.568C11.5576 18.6344 11.7315 18.668 11.907 18.667C12.2568 18.6655 12.592 18.5267 12.8403 18.2803L19.507 11.6137C19.632 11.4897 19.7312 11.3422 19.7989 11.1798C19.8665 11.0173 19.9014 10.843 19.9014 10.667C19.9014 10.491 19.8665 10.3167 19.7989 10.1542C19.7312 9.99174 19.632 9.84428 19.507 9.72033C19.2572 9.47199 18.9192 9.3326 18.567 9.3326C18.2148 9.3326 17.8768 9.47199 17.627 9.72033ZM14.0003 0.666992C11.3632 0.666992 8.78538 1.44898 6.59273 2.91406C4.40007 4.37915 2.69111 6.46153 1.68194 8.89788C0.672769 11.3342 0.408725 14.0151 0.923194 16.6015C1.43766 19.1879 2.70754 21.5637 4.57224 23.4284C6.43694 25.2931 8.81271 26.563 11.3991 27.0775C13.9855 27.5919 16.6664 27.3279 19.1028 26.3187C21.5391 25.3096 23.6215 23.6006 25.0866 21.4079C26.5517 19.2153 27.3337 16.6374 27.3337 14.0003C27.3337 12.2494 26.9888 10.5156 26.3187 8.89788C25.6487 7.2802 24.6665 5.81035 23.4284 4.57224C22.1903 3.33412 20.7205 2.35199 19.1028 1.68193C17.4851 1.01187 15.7513 0.666992 14.0003 0.666992ZM14.0003 24.667C11.8907 24.667 9.82837 24.0414 8.07425 22.8693C6.32012 21.6973 4.95295 20.0314 4.14562 18.0823C3.33828 16.1332 3.12705 13.9885 3.53862 11.9194C3.9502 9.85023 4.9661 7.94961 6.45786 6.45785C7.94962 4.96609 9.85024 3.95019 11.9194 3.53862C13.9885 3.12704 16.1332 3.33828 18.0823 4.14561C20.0314 4.95295 21.6973 6.32012 22.8693 8.07424C24.0414 9.82837 24.667 11.8907 24.667 14.0003C24.667 16.8293 23.5432 19.5424 21.5428 21.5428C19.5424 23.5432 16.8293 24.667 14.0003 24.667Z" fill="#6FCF97"/>
</svg>
