<svg width="63" height="62" viewBox="0 0 63 62" fill="none" xmlns="http://www.w3.org/2000/svg">
<path d="M62.2743 30.8575C62.2743 47.8996 48.4946 61.7149 31.4965 61.7149C14.4984 61.7149 0.71875 47.8996 0.71875 30.8575C0.71875 13.8154 14.4984 0 31.4965 0C48.4946 0 62.2743 13.8154 62.2743 30.8575Z" fill="#25D366"/>
<path d="M38.7188 23H36.7188V22C36.7188 21.7348 36.6134 21.4804 36.4259 21.2929C36.2383 21.1054 35.984 21 35.7188 21C35.4535 21 35.1992 21.1054 35.0116 21.2929C34.8241 21.4804 34.7188 21.7348 34.7188 22V23H28.7188V22C28.7188 21.7348 28.6134 21.4804 28.4259 21.2929C28.2383 21.1054 27.984 21 27.7188 21C27.4535 21 27.1992 21.1054 27.0116 21.2929C26.8241 21.4804 26.7188 21.7348 26.7188 22V23H24.7188C23.9231 23 23.16 23.3161 22.5974 23.8787C22.0348 24.4413 21.7188 25.2043 21.7188 26V38C21.7188 38.7957 22.0348 39.5587 22.5974 40.1213C23.16 40.6839 23.9231 41 24.7188 41H38.7188C39.5144 41 40.2775 40.6839 40.8401 40.1213C41.4027 39.5587 41.7188 38.7957 41.7188 38V26C41.7188 25.2043 41.4027 24.4413 40.8401 23.8787C40.2775 23.3161 39.5144 23 38.7188 23ZM39.7188 38C39.7188 38.2652 39.6134 38.5196 39.4259 38.7071C39.2383 38.8946 38.984 39 38.7188 39H24.7188C24.4535 39 24.1992 38.8946 24.0116 38.7071C23.8241 38.5196 23.7188 38.2652 23.7188 38V31H39.7188V38ZM39.7188 29H23.7188V26C23.7188 25.7348 23.8241 25.4804 24.0116 25.2929C24.1992 25.1054 24.4535 25 24.7188 25H26.7188V26C26.7188 26.2652 26.8241 26.5196 27.0116 26.7071C27.1992 26.8946 27.4535 27 27.7188 27C27.984 27 28.2383 26.8946 28.4259 26.7071C28.6134 26.5196 28.7188 26.2652 28.7188 26V25H34.7188V26C34.7188 26.2652 34.8241 26.5196 35.0116 26.7071C35.1992 26.8946 35.4535 27 35.7188 27C35.984 27 36.2383 26.8946 36.4259 26.7071C36.6134 26.5196 36.7188 26.2652 36.7188 26V25H38.7188C38.984 25 39.2383 25.1054 39.4259 25.2929C39.6134 25.4804 39.7188 25.7348 39.7188 26V29Z" fill="#FAFAFA"/>
</svg>
