<svg width="16" height="17" viewBox="0 0 16 17" fill="none" xmlns="http://www.w3.org/2000/svg">
<path d="M10 15.6663H6.00001C2.38001 15.6663 0.833344 14.1197 0.833344 10.4997V6.49967C0.833344 2.87967 2.38001 1.33301 6.00001 1.33301H9.33334C9.60668 1.33301 9.83334 1.55967 9.83334 1.83301C9.83334 2.10634 9.60668 2.33301 9.33334 2.33301H6.00001C2.92668 2.33301 1.83334 3.42634 1.83334 6.49967V10.4997C1.83334 13.573 2.92668 14.6663 6.00001 14.6663H10C13.0733 14.6663 14.1667 13.573 14.1667 10.4997V7.16634C14.1667 6.89301 14.3933 6.66634 14.6667 6.66634C14.94 6.66634 15.1667 6.89301 15.1667 7.16634V10.4997C15.1667 14.1197 13.62 15.6663 10 15.6663Z" fill="#0FC94B"/>
<path d="M14.6667 7.66633H12C9.72001 7.66633 8.83334 6.77967 8.83334 4.49967V1.833C8.83334 1.633 8.95334 1.44633 9.14001 1.373C9.32668 1.293 9.54001 1.33967 9.68668 1.47967L15.02 6.813C15.16 6.953 15.2067 7.173 15.1267 7.35967C15.0467 7.54633 14.8667 7.66633 14.6667 7.66633ZM9.83334 3.03967V4.49967C9.83334 6.21967 10.28 6.66633 12 6.66633H13.46L9.83334 3.03967Z" fill="#0FC94B"/>
</svg>
