<svg width="19" height="19" viewBox="0 0 19 19" fill="none" xmlns="http://www.w3.org/2000/svg">
<g clip-path="url(#clip0_263_22469)">
<path d="M3.9278 15.0734H5.03141L12.3009 7.80394L11.1973 6.70033L3.9278 13.9698V15.0734ZM16.4156 16.6344H2.36682V13.3228L12.8527 2.83691C12.999 2.6906 13.1975 2.6084 13.4045 2.6084C13.6114 2.6084 13.8099 2.6906 13.9563 2.83691L16.1643 5.04491C16.3106 5.19128 16.3928 5.38976 16.3928 5.59672C16.3928 5.80368 16.3106 6.00216 16.1643 6.14852L7.23941 15.0734H16.4156V16.6344ZM12.3009 5.59672L13.4045 6.70033L14.5081 5.59672L13.4045 4.49311L12.3009 5.59672V5.59672Z" fill="#F8F9F8"/>
</g>
<defs>
<clipPath id="clip0_263_22469">
<rect width="18.7317" height="18.7317" fill="white" transform="translate(0.0253906 0.244141)"/>
</clipPath>
</defs>
</svg>
