<svg width="34" height="22" viewBox="0 0 34 22" fill="none" xmlns="http://www.w3.org/2000/svg">
<path d="M3.23913 13.2826C3.61957 13.2826 3.88587 13.1304 4.03804 12.8261C4.19022 12.5217 4.19022 12.2174 4.03804 11.913C3.88587 11.6087 3.61957 11.4565 3.23913 11.4565C2.8587 11.4565 2.59239 11.6087 2.44022 11.913C2.28804 12.2174 2.28804 12.5217 2.44022 12.8261C2.59239 13.1304 2.8587 13.2826 3.23913 13.2826ZM24.2534 12.4552C24.1583 12.3315 23.9752 12.0938 23.7041 11.7418C23.4331 11.3899 23.2357 11.1332 23.1121 10.9715C22.9885 10.8098 22.8077 10.5768 22.57 10.2724C22.3322 9.96807 22.1301 9.71603 21.9637 9.5163C21.7972 9.31658 21.6046 9.09307 21.3859 8.84579C21.1671 8.59851 20.9531 8.36549 20.7439 8.14674L18.9606 10.144C18.1712 11.038 17.1797 11.4755 15.9861 11.4565C14.7925 11.4375 13.8152 10.9715 13.0543 10.0584C12.5122 9.40217 12.2435 8.65082 12.2483 7.80435C12.2531 6.95788 12.5312 6.21128 13.0829 5.56454L15.608 2.62568C15.3988 2.52106 15.1562 2.4426 14.8804 2.39029C14.6046 2.33798 14.3787 2.30944 14.2028 2.30469C14.0268 2.29993 13.7582 2.30231 13.3967 2.31182C13.0353 2.32133 12.8023 2.32609 12.6977 2.32609C11.8227 2.32609 11.0713 2.63995 10.4436 3.26766L8.18954 5.52174H5.97826V13.2826C6.02582 13.2826 6.12568 13.2802 6.27785 13.2755C6.43003 13.2707 6.53465 13.2707 6.59171 13.2755C6.64878 13.2802 6.74151 13.2897 6.8699 13.304C6.9983 13.3183 7.09579 13.3397 7.16236 13.3682C7.22894 13.3967 7.31216 13.4372 7.41202 13.4895C7.51189 13.5418 7.59986 13.606 7.67595 13.6821L11.913 17.8478C13.0068 18.9035 14.0863 19.4314 15.1515 19.4314C15.8933 19.4314 16.4878 19.2079 16.9348 18.7609C17.4769 18.9511 18.0119 18.913 18.5397 18.6467C19.0676 18.3804 19.4124 17.9762 19.574 17.4341C20.2779 17.4912 20.8818 17.2819 21.3859 16.8064C21.5761 16.6352 21.7473 16.4188 21.8995 16.1573C22.0516 15.8957 22.1182 15.6556 22.0992 15.4368C22.1943 15.5319 22.3988 15.5795 22.7126 15.5795C23.1216 15.5795 23.4878 15.4796 23.8111 15.2799C24.1345 15.0802 24.3699 14.8281 24.5173 14.5238C24.6647 14.2194 24.7218 13.8794 24.6885 13.5037C24.6552 13.1281 24.5102 12.7785 24.2534 12.4552ZM26.5217 13.2826H27.8913V5.97826H26.5645L24.3247 3.41033C23.697 2.6875 22.8933 2.32609 21.9137 2.32609H19.5312C18.6848 2.32609 17.9905 2.6447 17.4484 3.28193L14.4667 6.74864C14.2004 7.0625 14.0673 7.41916 14.0673 7.81861C14.0673 8.21807 14.1957 8.57473 14.4524 8.88859C14.8614 9.37364 15.3845 9.62092 16.0217 9.63044C16.659 9.63995 17.1868 9.40693 17.6053 8.93139L20.3587 5.82133C20.5965 5.60258 20.8509 5.50034 21.1219 5.51461C21.393 5.52887 21.6165 5.65727 21.7925 5.8998C21.9684 6.14232 22.0088 6.41101 21.9137 6.70584C22.0659 6.88655 22.3322 7.18614 22.7126 7.60462C23.0931 8.0231 23.3784 8.34647 23.5686 8.57473C23.8444 8.91712 24.2368 9.41882 24.7456 10.0798C25.2544 10.7408 25.5611 11.1427 25.6658 11.2853C26.1603 11.913 26.4457 12.5788 26.5217 13.2826ZM30.6304 13.2826C31.0109 13.2826 31.2772 13.1304 31.4293 12.8261C31.5815 12.5217 31.5815 12.2174 31.4293 11.913C31.2772 11.6087 31.0109 11.4565 30.6304 11.4565C30.25 11.4565 29.9837 11.6087 29.8315 11.913C29.6793 12.2174 29.6793 12.5217 29.8315 12.8261C29.9837 13.1304 30.25 13.2826 30.6304 13.2826ZM33.3696 5.06522V14.1957C33.3696 14.4429 33.2792 14.6569 33.0985 14.8376C32.9178 15.0183 32.7038 15.1087 32.4565 15.1087H26.2649C26.0082 15.7269 25.6182 16.2334 25.0951 16.6281C24.572 17.0228 23.9776 17.2677 23.3118 17.3628C22.998 17.8193 22.6151 18.2069 22.1634 18.5255C21.7116 18.8441 21.2242 19.0605 20.7011 19.1746C20.3016 19.6787 19.8047 20.0662 19.2103 20.3373C18.6158 20.6084 18.0048 20.7249 17.377 20.6868C16.8064 21.0102 16.2072 21.198 15.5795 21.2503C14.9518 21.3027 14.3454 21.2361 13.7605 21.0506C13.1756 20.8652 12.6192 20.6107 12.0914 20.2874C11.5635 19.964 11.0713 19.5788 10.6148 19.1318L6.52038 15.1087H1.41304C1.16576 15.1087 0.951766 15.0183 0.77106 14.8376C0.590353 14.6569 0.5 14.4429 0.5 14.1957V4.6087C0.5 4.36141 0.590353 4.14742 0.77106 3.96671C0.951766 3.78601 1.16576 3.69565 1.41304 3.69565H7.41916C7.55231 3.5625 7.77582 3.33424 8.08967 3.01087C8.40353 2.6875 8.62942 2.45924 8.76732 2.32609C8.90523 2.19293 9.11447 2.00272 9.39504 1.75543C9.67561 1.50815 9.91576 1.32982 10.1155 1.22045C10.3152 1.11107 10.5577 0.98981 10.8431 0.856658C11.1284 0.723505 11.4232 0.630774 11.7276 0.578465C12.0319 0.526155 12.3553 0.5 12.6977 0.5H14.3668C15.3084 0.5 16.1692 0.766304 16.949 1.29891C17.7289 0.766304 18.5897 0.5 19.5312 0.5H21.9137C22.2466 0.5 22.5652 0.528533 22.8696 0.585598C23.1739 0.642663 23.4426 0.711617 23.6756 0.792459C23.9086 0.873302 24.1535 0.999321 24.4103 1.17052C24.6671 1.34171 24.8787 1.48913 25.0452 1.61277C25.2116 1.73641 25.4161 1.92425 25.6586 2.17629C25.9012 2.42833 26.0866 2.62806 26.215 2.77548C26.3434 2.92289 26.5384 3.15116 26.7999 3.46026C27.0615 3.76936 27.2588 4 27.392 4.15217H32.4565C32.7038 4.15217 32.9178 4.24253 33.0985 4.42323C33.2792 4.60394 33.3696 4.81793 33.3696 5.06522Z" fill="#0FC94B"/>
</svg>
