<svg width="63" height="62" viewBox="0 0 63 62" fill="none" xmlns="http://www.w3.org/2000/svg">
<path d="M62.2743 30.8575C62.2743 47.8996 48.4946 61.7149 31.4965 61.7149C14.4984 61.7149 0.71875 47.8996 0.71875 30.8575C0.71875 13.8154 14.4984 0 31.4965 0C48.4946 0 62.2743 13.8154 62.2743 30.8575Z" fill="#25D366"/>
<path d="M31.3438 22C26.5805 22 22.7188 25.8617 22.7188 30.625V32.5H27.9688C28.1677 32.5 28.3584 32.579 28.4991 32.7197C28.6397 32.8603 28.7188 33.0511 28.7188 33.25V40.75C28.7188 40.9489 28.6397 41.1397 28.4991 41.2803C28.3584 41.421 28.1677 41.5 27.9688 41.5H24.5938C23.6986 41.5 22.8402 41.1444 22.2073 40.5115C21.5743 39.8786 21.2188 39.0201 21.2188 38.125V30.625C21.2188 25.033 25.7518 20.5 31.3438 20.5C36.9357 20.5 41.4688 25.033 41.4688 30.625V38.125C41.4688 39.0201 41.1132 39.8786 40.4802 40.5115C39.8473 41.1444 38.9889 41.5 38.0938 41.5H34.7188C34.5198 41.5 34.3291 41.421 34.1884 41.2803C34.0478 41.1397 33.9688 40.9489 33.9688 40.75V33.25C33.9688 33.0511 34.0478 32.8603 34.1884 32.7197C34.3291 32.579 34.5198 32.5 34.7188 32.5H39.9688V30.625C39.9688 25.8617 36.107 22 31.3438 22ZM39.9688 34H35.4688V40H38.0938C38.591 40 39.0679 39.8025 39.4196 39.4508C39.7712 39.0992 39.9688 38.6223 39.9688 38.125V34ZM22.7188 34V38.125C22.7188 38.6223 22.9163 39.0992 23.2679 39.4508C23.6196 39.8025 24.0965 40 24.5938 40H27.2188V34H22.7188Z" fill="#FAFAFA"/>
</svg>
