<svg width="63" height="62" viewBox="0 0 63 62" fill="none" xmlns="http://www.w3.org/2000/svg">
<ellipse cx="31.4965" cy="30.8575" rx="30.7778" ry="30.8575" fill="#25D366"/>
<path d="M25.2188 30C25.5154 30 25.8054 30.088 26.0521 30.2528C26.2988 30.4176 26.491 30.6519 26.6046 30.926C26.7181 31.2001 26.7478 31.5017 26.6899 31.7926C26.6321 32.0836 26.4892 32.3509 26.2794 32.5607C26.0696 32.7704 25.8024 32.9133 25.5114 32.9712C25.2204 33.0291 24.9188 32.9994 24.6447 32.8858C24.3706 32.7723 24.1364 32.58 23.9715 32.3334C23.8067 32.0867 23.7188 31.7967 23.7188 31.5C23.7188 31.1022 23.8768 30.7206 24.1581 30.4393C24.4394 30.158 24.8209 30 25.2188 30ZM25.2188 28C24.5265 28 23.8498 28.2053 23.2743 28.5899C22.6987 28.9744 22.2501 29.5211 21.9852 30.1606C21.7203 30.8001 21.651 31.5039 21.786 32.1828C21.9211 32.8617 22.2544 33.4854 22.7439 33.9749C23.2334 34.4644 23.857 34.7977 24.5359 34.9327C25.2149 35.0678 25.9186 34.9985 26.5581 34.7336C27.1977 34.4687 27.7443 34.0201 28.1289 33.4445C28.5135 32.8689 28.7188 32.1922 28.7188 31.5C28.7188 30.5717 28.35 29.6815 27.6936 29.0251C27.0372 28.3687 26.147 28 25.2188 28Z" fill="#FAFAFA"/>
<path d="M40.7188 29.0012H32.7188C32.1883 29.0012 31.6796 29.212 31.3045 29.587C30.9295 29.9621 30.7188 30.4708 30.7188 31.0012V37.0012H19.7188V25.6012L31.7188 19.1412L44.2488 25.8812L45.1887 24.1212L32.1887 17.1212C32.0441 17.0442 31.8827 17.0039 31.7188 17.0039C31.5548 17.0039 31.3934 17.0442 31.2487 17.1212L18.2487 24.1212C18.0891 24.2063 17.9554 24.333 17.8621 24.488C17.7688 24.643 17.7192 24.8203 17.7188 25.0012V45.0012H19.7188V39.0012H43.7188V45.0012H45.7188V34.0012C45.7188 32.6752 45.192 31.4034 44.2543 30.4657C43.3166 29.528 42.0448 29.0012 40.7188 29.0012ZM32.7188 37.0012V31.0012H40.7188C41.5144 31.0012 42.2775 31.3173 42.8401 31.8799C43.4027 32.4425 43.7188 33.2056 43.7188 34.0012V37.0012H32.7188Z" fill="#FAFAFA"/>
</svg>
