<svg width="16" height="16" viewBox="0 0 16 16" fill="none" xmlns="http://www.w3.org/2000/svg">
<path d="M8.66667 12.6708H12.6667V6.65609L8 3.02675L3.33333 6.65609V12.6708H7.33333V8.67075H8.66667V12.6708ZM14 13.3374C14 13.5142 13.9298 13.6838 13.8047 13.8088C13.6797 13.9339 13.5101 14.0041 13.3333 14.0041H2.66667C2.48986 14.0041 2.32029 13.9339 2.19526 13.8088C2.07024 13.6838 2 13.5142 2 13.3374V6.33075C1.99993 6.22916 2.02308 6.1289 2.06768 6.03762C2.11228 5.94634 2.17715 5.86646 2.25733 5.80409L7.59067 1.65609C7.7077 1.56505 7.85173 1.51562 8 1.51562C8.14827 1.51562 8.2923 1.56505 8.40933 1.65609L13.7427 5.80409C13.8229 5.86646 13.8877 5.94634 13.9323 6.03762C13.9769 6.1289 14.0001 6.22916 14 6.33075V13.3374Z" fill="#1F1D1E"/>
</svg>
