<svg width="20" height="18" viewBox="0 0 20 18" fill="none" xmlns="http://www.w3.org/2000/svg">
<path d="M2 2V16H18V2H2ZM1 0H19C19.2652 0 19.5196 0.105357 19.7071 0.292893C19.8946 0.48043 20 0.734784 20 1V17C20 17.2652 19.8946 17.5196 19.7071 17.7071C19.5196 17.8946 19.2652 18 19 18H1C0.734784 18 0.48043 17.8946 0.292893 17.7071C0.105357 17.5196 0 17.2652 0 17V1C0 0.734784 0.105357 0.48043 0.292893 0.292893C0.48043 0.105357 0.734784 0 1 0ZM4 4H6V6H4V4ZM4 8H6V10H4V8ZM4 12H16V14H4V12ZM9 8H11V10H9V8ZM9 4H11V6H9V4ZM14 4H16V6H14V4ZM14 8H16V10H14V8Z" fill="#0FC94B"/>
</svg>
