<svg width="63" height="62" viewBox="0 0 63 62" fill="none" xmlns="http://www.w3.org/2000/svg">
<ellipse cx="31.4965" cy="30.8575" rx="30.7778" ry="30.8575" fill="#25D366"/>
<path d="M27.7188 36.9982L29.7188 34.9982H31.7188L33.0787 33.6382C34.4689 34.1225 35.9823 34.1206 37.3713 33.6327C38.7602 33.1449 39.9424 32.2 40.7244 30.9528C41.5063 29.7055 41.8418 28.2297 41.6758 26.767C41.5098 25.3043 40.8521 23.9412 39.8105 22.9009C38.7689 21.8606 37.4051 21.2047 35.9421 21.0406C34.4792 20.8764 33.0039 21.2137 31.7576 21.9972C30.5113 22.7807 29.5679 23.9641 29.0818 25.3537C28.5957 26.7432 28.5957 28.2566 29.0817 29.6462L21.7188 36.9982V40.9982H25.7188L27.7188 38.9982V36.9982Z" stroke="#FAFAFA" stroke-width="1.33333" stroke-linecap="round" stroke-linejoin="round"/>
<path d="M35.7188 28C36.271 28 36.7188 27.5523 36.7188 27C36.7188 26.4477 36.271 26 35.7188 26C35.1665 26 34.7188 26.4477 34.7188 27C34.7188 27.5523 35.1665 28 35.7188 28Z" stroke="#FAFAFA" stroke-width="1.33333" stroke-linecap="round" stroke-linejoin="round"/>
</svg>
