<svg width="16" height="17" viewBox="0 0 16 17" fill="none" xmlns="http://www.w3.org/2000/svg">
<path d="M9.15822 7.34234C8.54389 6.72826 7.71084 6.3833 6.84222 6.3833C5.97361 6.3833 5.14055 6.72826 4.52622 7.34234L2.20947 9.65834C1.59513 10.2727 1.25 11.1059 1.25 11.9747C1.25 12.8435 1.59513 13.6767 2.20947 14.2911C2.82381 14.9054 3.65704 15.2506 4.52585 15.2506C5.39466 15.2506 6.22788 14.9054 6.84222 14.2911L8.00022 13.1331" stroke="#0FC94B" stroke-width="2" stroke-linecap="round" stroke-linejoin="round"/>
<path d="M6.84229 9.65822C7.45662 10.2723 8.28967 10.6173 9.15828 10.6173C10.0269 10.6173 10.86 10.2723 11.4743 9.65822L13.791 7.34222C14.4054 6.72788 14.7505 5.89466 14.7505 5.02585C14.7505 4.15704 14.4054 3.32381 13.791 2.70947C13.1767 2.09513 12.3435 1.75 11.4747 1.75C10.6059 1.75 9.77263 2.09513 9.15828 2.70947L8.00028 3.86747" stroke="#0FC94B" stroke-width="2" stroke-linecap="round" stroke-linejoin="round"/>
</svg>
