<svg width="13" height="15" viewBox="0 0 13 15" fill="none" xmlns="http://www.w3.org/2000/svg">
<path d="M10.7427 10.5746L6.5 14.8173L2.25734 10.5746C1.41823 9.73553 0.846791 8.66643 0.615286 7.50255C0.38378 6.33866 0.502605 5.13227 0.956732 4.03591C1.41086 2.93956 2.1799 2.00249 3.16659 1.34321C4.15328 0.683923 5.31332 0.332031 6.5 0.332031C7.68669 0.332031 8.84672 0.683923 9.83342 1.34321C10.8201 2.00249 11.5891 2.93956 12.0433 4.03591C12.4974 5.13227 12.6162 6.33866 12.3847 7.50255C12.1532 8.66643 11.5818 9.73553 10.7427 10.5746ZM6.5 7.66531C6.85362 7.66531 7.19276 7.52484 7.44281 7.27479C7.69286 7.02474 7.83334 6.6856 7.83334 6.33198C7.83334 5.97836 7.69286 5.63922 7.44281 5.38917C7.19276 5.13912 6.85362 4.99865 6.5 4.99865C6.14638 4.99865 5.80724 5.13912 5.55719 5.38917C5.30715 5.63922 5.16667 5.97836 5.16667 6.33198C5.16667 6.6856 5.30715 7.02474 5.55719 7.27479C5.80724 7.52484 6.14638 7.66531 6.5 7.66531Z" fill="#25D366"/>
</svg>
