<svg width="96" height="104" viewBox="0 0 96 104" fill="none" xmlns="http://www.w3.org/2000/svg">
<path d="M0 58.19L47.74 0L66.37 22.7L66.78 22.55C66.78 19.96 66.86 17.36 66.78 14.77C66.72 13.2 67.27 12.67 68.78 12.77C70.9647 12.9 73.1553 12.9 75.34 12.77C77.2 12.63 77.82 13.17 77.78 15.13C77.65 21.76 77.68 28.39 77.78 35.02C77.8097 36.0446 78.1594 37.0342 78.78 37.85C83.88 44.18 89.08 50.44 94.23 56.72C94.57 57.14 94.83 57.61 95.4 58.46C91.91 58.46 88.81 58.28 85.73 58.51C83.09 58.71 81.43 57.78 79.73 55.72C69.92 43.55 59.95 31.5 50.04 19.41L47.69 16.56L25.69 43.38L55.89 57.88L55.8 58.26L0 58.19Z" fill="#228C44"/>
<path d="M53.0304 64.54H51.8804V75.62H53.0304V64.54Z" fill="#228C44"/>
<path d="M51.1902 64.54H50.4302V75.62H51.1902V64.54Z" fill="#228C44"/>
<path d="M78.8504 70.89L63.8904 70.49L78.9104 69.63V64.54H54.4204V75.62H78.9104V70.01L78.8504 70.89Z" fill="#228C44"/>
<path d="M46.2102 64.54H12.4502V64.62L27.2502 65.48L12.4502 65.87V66.62L27.3702 67.48L12.4502 67.88V73.58L24.6502 74.28L12.5302 74.6L12.4502 73.58V75.62H46.2102V64.54Z" fill="#228C44"/>
<path d="M50.6803 78.3701H49.5303V89.4501H50.6803V78.3701Z" fill="#228C44"/>
<path d="M48.8301 78.3701H22.6201V81.6601L37.1601 82.5001L22.6201 82.8901V89.4501H48.8301V78.3701Z" fill="#228C44"/>
<path d="M78.4001 87.3701L89.0901 86.7601V82.5101L74.1401 82.1101L89.0901 81.2501V80.5001L74.2701 80.1101L89.0901 79.2501V78.3701H58.0301V89.3901H53.8101V78.3701H52.0601V89.4501H89.0901V87.6601L78.4001 87.3701Z" fill="#228C44"/>
<path d="M46.0203 92.21H44.2603V103.29H46.0203V92.21Z" fill="#228C44"/>
<path d="M40.0301 92.21H7.83008V92.7799L22.6901 93.64L7.83008 94.0299V94.7799L22.8301 95.64L7.83008 96.0399V95.61V103.28H40.0301V92.21ZM7.97008 102.77L7.89008 101.77L20.0901 102.47L7.97008 102.77Z" fill="#228C44"/>
<path d="M59.4002 98.65L74.2902 97.7899V92.21H49.2402V103.28H74.2902V99.05L59.4002 98.65Z" fill="#228C44"/>
<path d="M47.86 92.21H46.71V103.29H47.86V92.21Z" fill="#228C44"/>
</svg>
