<svg width="28" height="26" viewBox="0 0 28 26" fill="none" xmlns="http://www.w3.org/2000/svg">
<path d="M7.33073 10.0013C8.21478 10.0013 9.06263 9.65011 9.68775 9.02499C10.3129 8.39987 10.6641 7.55202 10.6641 6.66797C10.6641 5.78391 10.3129 4.93607 9.68775 4.31095C9.06263 3.68582 8.21478 3.33464 7.33073 3.33464C6.44667 3.33464 5.59883 3.68582 4.97371 4.31095C4.34859 4.93607 3.9974 5.78391 3.9974 6.66797C3.9974 7.55202 4.34859 8.39987 4.97371 9.02499C5.59883 9.65011 6.44667 10.0013 7.33073 10.0013ZM7.33073 12.668C6.5428 12.668 5.76258 12.5128 5.03463 12.2112C4.30668 11.9097 3.64524 11.4678 3.08809 10.9106C2.53094 10.3535 2.08898 9.69202 1.78745 8.96407C1.48592 8.23612 1.33073 7.4559 1.33073 6.66797C1.33073 5.88004 1.48592 5.09982 1.78745 4.37187C2.08898 3.64391 2.53094 2.98248 3.08809 2.42533C3.64524 1.86818 4.30668 1.42622 5.03463 1.12469C5.76258 0.823163 6.5428 0.667969 7.33073 0.667969C8.92203 0.667969 10.4482 1.30011 11.5734 2.42533C12.6986 3.55055 13.3307 5.07667 13.3307 6.66797C13.3307 8.25927 12.6986 9.78539 11.5734 10.9106C10.4482 12.0358 8.92203 12.668 7.33073 12.668ZM21.3307 15.3346C22.038 15.3346 22.7162 15.0537 23.2163 14.5536C23.7164 14.0535 23.9974 13.3752 23.9974 12.668C23.9974 11.9607 23.7164 11.2824 23.2163 10.7824C22.7162 10.2823 22.038 10.0013 21.3307 10.0013C20.6235 10.0013 19.9452 10.2823 19.4451 10.7824C18.945 11.2824 18.6641 11.9607 18.6641 12.668C18.6641 13.3752 18.945 14.0535 19.4451 14.5536C19.9452 15.0537 20.6235 15.3346 21.3307 15.3346ZM21.3307 18.0013C19.9162 18.0013 18.5597 17.4394 17.5595 16.4392C16.5593 15.439 15.9974 14.0825 15.9974 12.668C15.9974 11.2535 16.5593 9.89693 17.5595 8.89673C18.5597 7.89654 19.9162 7.33464 21.3307 7.33464C22.7452 7.33464 24.1018 7.89654 25.102 8.89673C26.1022 9.89693 26.6641 11.2535 26.6641 12.668C26.6641 14.0825 26.1022 15.439 25.102 16.4392C24.1018 17.4394 22.7452 18.0013 21.3307 18.0013ZM24.6641 26.0013V25.3346C24.6641 24.4506 24.3129 23.6027 23.6878 22.9776C23.0626 22.3525 22.2148 22.0013 21.3307 22.0013C20.4467 22.0013 19.5988 22.3525 18.9737 22.9776C18.3486 23.6027 17.9974 24.4506 17.9974 25.3346V26.0013H15.3307V25.3346C15.3307 24.5467 15.4859 23.7665 15.7875 23.0385C16.089 22.3106 16.5309 21.6491 17.0881 21.092C17.6452 20.5348 18.3067 20.0929 19.0346 19.7914C19.7626 19.4898 20.5428 19.3346 21.3307 19.3346C22.1187 19.3346 22.8989 19.4898 23.6268 19.7914C24.3548 20.0929 25.0162 20.5348 25.5734 21.092C26.1305 21.6491 26.5725 22.3106 26.874 23.0385C27.1755 23.7665 27.3307 24.5467 27.3307 25.3346V26.0013H24.6641ZM11.3307 26.0013V20.668C11.3307 19.6071 10.9093 18.5897 10.1592 17.8395C9.40901 17.0894 8.3916 16.668 7.33073 16.668C6.26986 16.668 5.25245 17.0894 4.5023 17.8395C3.75216 18.5897 3.33073 19.6071 3.33073 20.668V26.0013H0.664062V20.668C0.664063 18.8999 1.36644 17.2042 2.61668 15.9539C3.86693 14.7037 5.56262 14.0013 7.33073 14.0013C9.09884 14.0013 10.7945 14.7037 12.0448 15.9539C13.295 17.2042 13.9974 18.8999 13.9974 20.668V26.0013H11.3307Z" fill="#0FC94B"/>
</svg>
