<svg width="63" height="62" viewBox="0 0 63 62" fill="none" xmlns="http://www.w3.org/2000/svg">
<ellipse cx="31.4965" cy="30.8575" rx="30.7778" ry="30.8575" fill="#25D366"/>
<path fill-rule="evenodd" clip-rule="evenodd" d="M34.8975 31.4447C34.7136 30.9247 34.373 30.4745 33.9227 30.1561C33.4723 29.8377 32.9344 29.6667 32.3828 29.6667V29H31.0495V29.6667C30.3422 29.6667 29.664 29.9476 29.1639 30.4477C28.6638 30.9478 28.3828 31.6261 28.3828 32.3333C28.3828 33.0406 28.6638 33.7189 29.1639 34.219C29.664 34.719 30.3422 35 31.0495 35V37.6667C30.4695 37.6667 29.9755 37.2967 29.7915 36.778C29.7642 36.6931 29.7201 36.6146 29.662 36.5471C29.6038 36.4795 29.5327 36.4244 29.4528 36.3848C29.3729 36.3452 29.2859 36.3221 29.1969 36.3167C29.108 36.3113 29.0188 36.3239 28.9348 36.3536C28.8507 36.3833 28.7735 36.4295 28.7076 36.4896C28.6417 36.5497 28.5886 36.6223 28.5513 36.7033C28.514 36.7843 28.4933 36.8719 28.4905 36.961C28.4877 37.0501 28.5027 37.1388 28.5348 37.222C28.7187 37.742 29.0593 38.1922 29.5096 38.5106C29.96 38.829 30.4979 39 31.0495 39V39.6667H32.3828V39C33.0901 39 33.7683 38.719 34.2684 38.219C34.7685 37.7189 35.0495 37.0406 35.0495 36.3333C35.0495 35.6261 34.7685 34.9478 34.2684 34.4477C33.7683 33.9476 33.0901 33.6667 32.3828 33.6667V31C32.6586 30.9999 32.9275 31.0854 33.1527 31.2445C33.3779 31.4037 33.5482 31.6287 33.6401 31.8887C33.699 32.0554 33.8217 32.1919 33.9813 32.2682C34.0602 32.3059 34.1459 32.3278 34.2333 32.3324C34.3208 32.3371 34.4083 32.3245 34.4908 32.2953C34.5734 32.2662 34.6494 32.2211 34.7145 32.1625C34.7796 32.104 34.8326 32.0332 34.8703 31.9542C34.9081 31.8752 34.9299 31.7896 34.9346 31.7021C34.9392 31.6147 34.9266 31.5272 34.8975 31.4447ZM31.0495 31C30.6959 31 30.3567 31.1405 30.1067 31.3905C29.8566 31.6406 29.7161 31.9797 29.7161 32.3333C29.7161 32.687 29.8566 33.0261 30.1067 33.2761C30.3567 33.5262 30.6959 33.6667 31.0495 33.6667V31ZM32.3828 37.6667C32.7364 37.6667 33.0756 37.5262 33.3256 37.2761C33.5757 37.0261 33.7161 36.687 33.7161 36.3333C33.7161 35.9797 33.5757 35.6406 33.3256 35.3905C33.0756 35.1405 32.7364 35 32.3828 35V37.6667Z" fill="#FAFAFA"/>
<path fill-rule="evenodd" clip-rule="evenodd" d="M24.4848 20.7473C26.1208 19.9467 28.8048 19 31.7421 19C34.6181 19 37.2315 19.9073 38.8588 20.6973L38.9508 20.742C39.4415 20.9847 39.8375 21.214 40.1161 21.4L37.6535 25C43.3308 30.804 47.7161 42.998 31.7421 42.998C15.7681 42.998 20.0355 31.0253 25.7621 25L23.3155 21.4C23.5041 21.2767 23.7435 21.1333 24.0288 20.9813C24.1701 20.9053 24.3221 20.8273 24.4848 20.748V20.7473ZM36.0708 24.952L38.0421 22.07C36.2088 22.202 34.0275 22.6327 31.9275 23.2407C30.4275 23.674 28.7608 23.608 27.2175 23.3233C26.8286 23.2512 26.4423 23.1654 26.0595 23.066L27.3395 24.9507C30.0828 25.9273 33.3268 25.9273 36.0708 24.952ZM26.5695 26.0867C29.7795 27.3267 33.6375 27.3267 36.8475 26.0853C38.1874 27.4978 39.3083 29.1029 40.1728 30.8473C41.0741 32.686 41.5648 34.524 41.4848 36.108C41.4075 37.6367 40.8061 38.9427 39.4328 39.9133C38.0015 40.9247 35.5941 41.6647 31.7415 41.6647C27.8848 41.6647 25.4661 40.9373 24.0215 39.9373C22.6381 38.9787 22.0308 37.6907 21.9448 36.1827C21.8548 34.616 22.3348 32.7873 23.2328 30.936C24.0895 29.1707 25.2848 27.4713 26.5695 26.0867ZM25.8028 21.6107C26.3361 21.7693 26.8935 21.9073 27.4588 22.012C28.8921 22.276 30.3295 22.3147 31.5561 21.9593C32.9856 21.5429 34.4395 21.2154 35.9095 20.9787C34.6828 20.6093 33.2481 20.3333 31.7415 20.3333C29.4448 20.3333 27.3028 20.974 25.8028 21.6107Z" fill="#FAFAFA"/>
</svg>
