<svg width="63" height="62" viewBox="0 0 63 62" fill="none" xmlns="http://www.w3.org/2000/svg">
<ellipse cx="31.4965" cy="30.8575" rx="30.7778" ry="30.8575" fill="#25D366"/>
<g clip-path="url(#clip0_555_26432)">
<path d="M31.7188 35C32.7796 35 33.797 34.5786 34.5472 33.8284C35.2973 33.0783 35.7188 32.0609 35.7188 31C35.7188 29.9391 35.2973 28.9217 34.5472 28.1716C33.797 27.4214 32.7796 27 31.7188 27C30.6579 27 29.6405 27.4214 28.8903 28.1716C28.1402 28.9217 27.7188 29.9391 27.7188 31C27.7188 32.0609 28.1402 33.0783 28.8903 33.8284C29.6405 34.5786 30.6579 35 31.7188 35Z" fill="#FAFAFA"/>
<path d="M15.7188 23C15.7188 22.4696 15.9295 21.9609 16.3045 21.5858C16.6796 21.2107 17.1883 21 17.7188 21H45.7188C46.2492 21 46.7579 21.2107 47.133 21.5858C47.508 21.9609 47.7188 22.4696 47.7188 23V39C47.7188 39.5304 47.508 40.0391 47.133 40.4142C46.7579 40.7893 46.2492 41 45.7188 41H17.7188C17.1883 41 16.6796 40.7893 16.3045 40.4142C15.9295 40.0391 15.7188 39.5304 15.7188 39V23ZM21.7188 23C21.7188 24.0609 21.2973 25.0783 20.5472 25.8284C19.797 26.5786 18.7796 27 17.7188 27V35C18.7796 35 19.797 35.4214 20.5472 36.1716C21.2973 36.9217 21.7188 37.9391 21.7188 39H41.7188C41.7188 37.9391 42.1402 36.9217 42.8903 36.1716C43.6405 35.4214 44.6579 35 45.7188 35V27C44.6579 27 43.6405 26.5786 42.8903 25.8284C42.1402 25.0783 41.7188 24.0609 41.7188 23H21.7188Z" fill="#FAFAFA"/>
</g>
<defs>
<clipPath id="clip0_555_26432">
<rect width="32" height="32" fill="white" transform="translate(15.7188 15)"/>
</clipPath>
</defs>
</svg>
