<svg width="23" height="18" viewBox="0 0 23 18" fill="none" xmlns="http://www.w3.org/2000/svg">
<g clip-path="url(#clip0_2238_50428)">
<path d="M12.375 10.125H11.8125V7.03125C11.8125 6.87586 11.6866 6.75 11.5312 6.75H11.0538C10.8872 6.75 10.7244 6.79922 10.5859 6.89168L10.047 7.25098C10.0162 7.27144 9.98981 7.29776 9.96925 7.32844C9.94869 7.35911 9.93438 7.39354 9.92713 7.42974C9.91989 7.46595 9.91984 7.50323 9.92701 7.53946C9.93418 7.57568 9.94841 7.61014 9.96891 7.64086L10.2811 8.10879C10.3016 8.13953 10.3279 8.16593 10.3586 8.18649C10.3892 8.20705 10.4237 8.22136 10.4599 8.22861C10.4961 8.23586 10.5334 8.2359 10.5696 8.22873C10.6058 8.22156 10.6403 8.20733 10.671 8.18684L10.6875 8.17594V10.125H10.125C9.96961 10.125 9.84375 10.2509 9.84375 10.4062V10.9688C9.84375 11.1241 9.96961 11.25 10.125 11.25H12.375C12.5304 11.25 12.6562 11.1241 12.6562 10.9688V10.4062C12.6562 10.2509 12.5304 10.125 12.375 10.125ZM21.375 2.25H1.125C0.503789 2.25 0 2.75379 0 3.375V14.625C0 15.2462 0.503789 15.75 1.125 15.75H21.375C21.9962 15.75 22.5 15.2462 22.5 14.625V3.375C22.5 2.75379 21.9962 2.25 21.375 2.25ZM1.6875 14.0625V11.8125C2.93027 11.8125 3.9375 12.8197 3.9375 14.0625H1.6875ZM1.6875 6.1875V3.9375H3.9375C3.9375 5.18027 2.93027 6.1875 1.6875 6.1875ZM11.25 12.9375C9.38602 12.9375 7.875 11.1744 7.875 9C7.875 6.82523 9.38602 5.0625 11.25 5.0625C13.114 5.0625 14.625 6.82523 14.625 9C14.625 11.1751 13.1133 12.9375 11.25 12.9375ZM20.8125 14.0625H18.5625C18.5625 12.8197 19.5697 11.8125 20.8125 11.8125V14.0625ZM20.8125 6.1875C19.5697 6.1875 18.5625 5.18027 18.5625 3.9375H20.8125V6.1875Z" fill="#0FC94B"/>
</g>
<defs>
<clipPath id="clip0_2238_50428">
<rect width="22.5" height="18" fill="white"/>
</clipPath>
</defs>
</svg>
