<svg width="16" height="16" viewBox="0 0 16 16" fill="none" xmlns="http://www.w3.org/2000/svg">
<g clip-path="url(#clip0_2238_50423)">
<path d="M11.0622 11.5558H14.5555C14.2622 7.68466 12.5955 5.28022 10.4578 3.858L11.4311 1.73355C11.4605 1.66614 11.4727 1.59248 11.4667 1.51917C11.4606 1.44587 11.4365 1.37522 11.3964 1.31355C11.3563 1.25188 11.3015 1.20112 11.237 1.16583C11.1725 1.13053 11.1002 1.11181 11.0266 1.11133H4.93331C4.85976 1.11181 4.78748 1.13053 4.72295 1.16583C4.65841 1.20112 4.60365 1.25188 4.56356 1.31355C4.52348 1.37522 4.49933 1.44587 4.49327 1.51917C4.48722 1.59248 4.49945 1.66614 4.52887 1.73355L5.0622 2.88911H9.55998L9.15998 3.778H8.33776C8.58887 4.45322 8.77345 5.15134 8.88887 5.86244C8.96363 6.30354 9.01113 6.74883 9.03109 7.19577L8.32887 7.68911C8.33077 7.11423 8.28319 6.54026 8.18665 5.97355C8.06384 5.21932 7.85199 4.48232 7.55554 3.778H7.11109C6.70093 4.29625 6.33238 4.84611 6.00887 5.42244C5.74803 5.91682 5.5266 6.43101 5.34665 6.96022L4.73776 6.55577C4.91549 6.04428 5.13397 5.54788 5.39109 5.07133C5.6509 4.62446 5.9358 4.19265 6.24443 3.778H5.46665L5.5022 3.85355C3.14665 5.42244 1.35554 8.178 1.35554 12.778C1.34953 12.8747 1.36274 12.9716 1.39441 13.0632C1.42608 13.1547 1.47558 13.2391 1.54005 13.3114C1.60452 13.3838 1.68268 13.4426 1.77001 13.4845C1.85734 13.5265 1.95212 13.5507 2.04887 13.5558H5.60443C5.45175 13.3969 5.34634 13.1986 5.29999 12.9832C5.25365 12.7678 5.2682 12.5437 5.34202 12.3361C5.41584 12.1284 5.54602 11.9455 5.71796 11.8077C5.8899 11.6698 6.09682 11.5826 6.31554 11.5558C6.2091 11.3753 6.15236 11.1698 6.15109 10.9602C6.15109 10.642 6.27752 10.3367 6.50256 10.1117C6.72761 9.88665 7.03283 9.76022 7.35109 9.76022H10.0178C10.336 9.76022 10.6412 9.88665 10.8663 10.1117C11.0913 10.3367 11.2178 10.642 11.2178 10.9602C11.22 11.1691 11.1663 11.3747 11.0622 11.5558Z" fill="#0FC94B"/>
<path d="M9.59999 12.6671C9.59999 12.5492 9.55316 12.4362 9.46981 12.3528C9.38646 12.2695 9.27342 12.2227 9.15554 12.2227H6.48888C6.371 12.2227 6.25796 12.2695 6.17461 12.3528C6.09126 12.4362 6.04443 12.5492 6.04443 12.6671C6.04443 12.785 6.09126 12.898 6.17461 12.9814C6.25796 13.0647 6.371 13.1115 6.48888 13.1115H9.15554C9.27342 13.1115 9.38646 13.0647 9.46981 12.9814C9.55316 12.898 9.59999 12.785 9.59999 12.6671Z" fill="#0FC94B"/>
<path d="M10.0178 10.4453H7.35112C7.23325 10.4453 7.1202 10.4921 7.03685 10.5755C6.9535 10.6588 6.90668 10.7719 6.90668 10.8898C6.90668 11.0076 6.9535 11.1207 7.03685 11.204C7.1202 11.2874 7.23325 11.3342 7.35112 11.3342H10.0178C10.1357 11.3342 10.2487 11.2874 10.3321 11.204C10.4154 11.1207 10.4622 11.0076 10.4622 10.8898C10.4622 10.7719 10.4154 10.6588 10.3321 10.5755C10.2487 10.4921 10.1357 10.4453 10.0178 10.4453Z" fill="#0FC94B"/>
<path d="M9.7778 14H7.11113C6.99326 14 6.88021 14.0468 6.79686 14.1302C6.71351 14.2135 6.66669 14.3266 6.66669 14.4444C6.66669 14.5623 6.71351 14.6754 6.79686 14.7587C6.88021 14.8421 6.99326 14.8889 7.11113 14.8889H9.7778C9.89567 14.8889 10.0087 14.8421 10.0921 14.7587C10.1754 14.6754 10.2222 14.5623 10.2222 14.4444C10.2222 14.3266 10.1754 14.2135 10.0921 14.1302C10.0087 14.0468 9.89567 14 9.7778 14Z" fill="#0FC94B"/>
<path d="M14.5333 14H11.4222C11.3044 14 11.1913 14.0468 11.108 14.1302C11.0246 14.2135 10.9778 14.3266 10.9778 14.4444C10.9778 14.5623 11.0246 14.6754 11.108 14.7587C11.1913 14.8421 11.3044 14.8889 11.4222 14.8889H14.5333C14.6512 14.8889 14.7643 14.8421 14.8476 14.7587C14.931 14.6754 14.9778 14.5623 14.9778 14.4444C14.9778 14.3266 14.931 14.2135 14.8476 14.1302C14.7643 14.0468 14.6512 14 14.5333 14Z" fill="#0FC94B"/>
<path d="M14.9778 12.2227H11.8667C11.7488 12.2227 11.6358 12.2695 11.5524 12.3528C11.4691 12.4362 11.4222 12.5492 11.4222 12.6671C11.4222 12.785 11.4691 12.898 11.5524 12.9814C11.6358 13.0647 11.7488 13.1115 11.8667 13.1115H14.9778C15.0957 13.1115 15.2087 13.0647 15.2921 12.9814C15.3754 12.898 15.4222 12.785 15.4222 12.6671C15.4222 12.5492 15.3754 12.4362 15.2921 12.3528C15.2087 12.2695 15.0957 12.2227 14.9778 12.2227Z" fill="#0FC94B"/>
</g>
<defs>
<clipPath id="clip0_2238_50423">
<rect width="16" height="16" fill="white"/>
</clipPath>
</defs>
</svg>
