<svg width="65" height="64" viewBox="0 0 65 64" fill="none" xmlns="http://www.w3.org/2000/svg">
<circle cx="32.5" cy="32" r="32" fill="#25D366"/>
<path d="M44.7959 32.6935L27.1309 44.4702C27.0054 44.5537 26.8597 44.6016 26.7091 44.6088C26.5585 44.616 26.4088 44.5822 26.2759 44.5111C26.143 44.4399 26.0319 44.3341 25.9545 44.2048C25.877 44.0755 25.836 43.9276 25.8359 43.7769V20.2235C25.836 20.0728 25.877 19.9249 25.9545 19.7956C26.0319 19.6663 26.143 19.5604 26.2759 19.4893C26.4088 19.4181 26.5585 19.3844 26.7091 19.3916C26.8597 19.3988 27.0054 19.4467 27.1309 19.5302L44.7959 31.3069C44.9101 31.383 45.0036 31.4861 45.0684 31.607C45.1331 31.728 45.167 31.863 45.167 32.0002C45.167 32.1374 45.1331 32.2724 45.0684 32.3934C45.0036 32.5143 44.9101 32.6174 44.7959 32.6935Z" fill="#FAFAFA"/>
</svg>
