<svg width="103" height="124" viewBox="0 0 103 124" fill="none" xmlns="http://www.w3.org/2000/svg">
<path d="M51.3587 118C50.1772 118 49.0253 117.635 48.0645 116.956L27.3673 102.354C20.7639 97.6862 15.3815 91.5315 11.6657 84.4C7.94996 77.2686 6.00777 69.3654 6 61.345V19.5868C6.00043 18.7536 6.18902 17.9311 6.55202 17.179C6.91503 16.4269 7.44331 15.7643 8.09839 15.2394C8.75347 14.7144 9.51885 14.3404 10.3388 14.1446C11.1587 13.9487 12.0126 13.936 12.8381 14.1073C18.8972 15.3643 25.1528 15.383 31.2195 14.1623C37.2862 12.9415 43.0358 10.5071 48.114 7.00899C49.0653 6.35222 50.198 6 51.3587 6C52.5194 6 53.652 6.35222 54.6033 7.00899C59.6811 10.5081 65.4307 12.9431 71.4977 14.1638C77.5646 15.3846 83.8204 15.3653 89.8795 14.1071C90.7051 13.9359 91.5589 13.9487 92.3788 14.1445C93.1987 14.3404 93.964 14.7144 94.619 15.2393C95.2741 15.7642 95.8023 16.4269 96.1653 17.1789C96.5283 17.931 96.7169 18.7535 96.7173 19.5866V61.3449C96.7096 69.3652 94.7675 77.2684 91.0517 84.3998C87.336 91.5313 81.9536 97.686 75.3503 102.354L54.6531 116.955C53.6922 117.635 52.5403 118 51.3587 118Z" fill="#25D366" fill-opacity="0.17" stroke="white" stroke-opacity="0.58" stroke-width="11"/>
<path d="M51.4987 43.771C41.4362 43.771 33.2695 51.9377 33.2695 62.0002C33.2695 72.0627 41.4362 80.2293 51.4987 80.2293C61.5612 80.2293 69.7279 72.0627 69.7279 62.0002C69.7279 51.9377 61.5612 43.771 51.4987 43.771ZM51.4987 76.5835C43.4596 76.5835 36.9154 70.0392 36.9154 62.0002C36.9154 53.9611 43.4596 47.4168 51.4987 47.4168C59.5378 47.4168 66.082 53.9611 66.082 62.0002C66.082 70.0392 59.5378 76.5835 51.4987 76.5835ZM58.5716 55.2371L47.8529 65.9559L44.4258 62.5288C43.7148 61.8179 42.5664 61.8179 41.8555 62.5288C41.1445 63.2397 41.1445 64.3882 41.8555 65.0991L46.5768 69.8205C47.2878 70.5314 48.4362 70.5314 49.1471 69.8205L61.1602 57.8075C61.8711 57.0965 61.8711 55.9481 61.1602 55.2371C60.4492 54.5262 59.2826 54.5262 58.5716 55.2371Z" fill="#25D366"/>
</svg>
