<svg width="24" height="24" viewBox="0 0 24 24" fill="none" xmlns="http://www.w3.org/2000/svg">
<path d="M2.21569 14.0627C1.9281 12.7044 1.9281 11.301 2.21569 9.94269C3.32569 10.0727 4.29569 9.70569 4.61169 8.94169C4.92869 8.17669 4.50369 7.23169 3.62569 6.53869C4.38273 5.37502 5.37502 4.38273 6.53869 3.62569C7.23069 4.50269 8.17669 4.92869 8.94169 4.61169C9.70669 4.29469 10.0737 3.32569 9.94269 2.21569C11.301 1.9281 12.7044 1.9281 14.0627 2.21569C13.9327 3.32569 14.2997 4.29569 15.0637 4.61169C15.8287 4.92869 16.7737 4.50369 17.4667 3.62569C18.6304 4.38273 19.6227 5.37502 20.3797 6.53869C19.5027 7.23069 19.0767 8.17669 19.3937 8.94169C19.7107 9.70669 20.6797 10.0737 21.7897 9.94269C22.0773 11.301 22.0773 12.7044 21.7897 14.0627C20.6797 13.9327 19.7097 14.2997 19.3937 15.0637C19.0767 15.8287 19.5017 16.7737 20.3797 17.4667C19.6227 18.6304 18.6304 19.6227 17.4667 20.3797C16.7747 19.5027 15.8287 19.0767 15.0637 19.3937C14.2987 19.7107 13.9317 20.6797 14.0627 21.7897C12.7044 22.0773 11.301 22.0773 9.94269 21.7897C10.0727 20.6797 9.70569 19.7097 8.94169 19.3937C8.17669 19.0767 7.23169 19.5017 6.53869 20.3797C5.37502 19.6227 4.38273 18.6304 3.62569 17.4667C4.50269 16.7747 4.92869 15.8287 4.61169 15.0637C4.29469 14.2987 3.32569 13.9317 2.21569 14.0627ZM4.00269 12.2127C5.10269 12.5177 6.00969 13.2147 6.45969 14.2987C6.90869 15.3837 6.75969 16.5187 6.19769 17.5107C6.29369 17.6127 6.39269 17.7117 6.49469 17.8077C7.48769 17.2457 8.62169 17.0977 9.70669 17.5457C10.7907 17.9957 11.4877 18.9027 11.7927 20.0027C11.9327 20.0067 12.0727 20.0067 12.2127 20.0027C12.5177 18.9027 13.2147 17.9957 14.2987 17.5457C15.3837 17.0967 16.5187 17.2457 17.5107 17.8077C17.6127 17.7117 17.7117 17.6127 17.8077 17.5107C17.2457 16.5177 17.0977 15.3837 17.5457 14.2987C17.9957 13.2147 18.9027 12.5177 20.0027 12.2127C20.0067 12.0727 20.0067 11.9327 20.0027 11.7927C18.9027 11.4877 17.9957 10.7907 17.5457 9.70669C17.0967 8.62169 17.2457 7.48669 17.8077 6.49469C17.7113 6.39309 17.6123 6.29405 17.5107 6.19769C16.5177 6.75969 15.3837 6.90769 14.2987 6.45969C13.2147 6.00969 12.5177 5.10269 12.2127 4.00269C12.0727 3.99899 11.9327 3.99899 11.7927 4.00269C11.4877 5.10269 10.7907 6.00969 9.70669 6.45969C8.62169 6.90869 7.48669 6.75969 6.49469 6.19769C6.39269 6.29369 6.29369 6.39269 6.19769 6.49469C6.75969 7.48769 6.90769 8.62169 6.45969 9.70669C6.00969 10.7907 5.10269 11.4877 4.00269 11.7927C3.99869 11.9327 3.99869 12.0727 4.00269 12.2127ZM12.0027 15.0027C11.207 15.0027 10.444 14.6866 9.88137 14.124C9.31876 13.5614 9.00269 12.7983 9.00269 12.0027C9.00269 11.207 9.31876 10.444 9.88137 9.88137C10.444 9.31876 11.207 9.00269 12.0027 9.00269C12.7983 9.00269 13.5614 9.31876 14.124 9.88137C14.6866 10.444 15.0027 11.207 15.0027 12.0027C15.0027 12.7983 14.6866 13.5614 14.124 14.124C13.5614 14.6866 12.7983 15.0027 12.0027 15.0027ZM12.0027 13.0027C12.2679 13.0027 12.5223 12.8973 12.7098 12.7098C12.8973 12.5223 13.0027 12.2679 13.0027 12.0027C13.0027 11.7375 12.8973 11.4831 12.7098 11.2956C12.5223 11.108 12.2679 11.0027 12.0027 11.0027C11.7375 11.0027 11.4831 11.108 11.2956 11.2956C11.108 11.4831 11.0027 11.7375 11.0027 12.0027C11.0027 12.2679 11.108 12.5223 11.2956 12.7098C11.4831 12.8973 11.7375 13.0027 12.0027 13.0027Z" fill="#FAFAFA"/>
</svg>
