<svg width="62" height="62" viewBox="0 0 62 62" fill="none" xmlns="http://www.w3.org/2000/svg">
<rect width="62" height="62" rx="31" fill="#25D366"/>
<path d="M33 33.252V35.342C32.0949 35.022 31.1263 34.9239 30.1754 35.0558C29.2245 35.1877 28.3192 35.5459 27.5354 36.1002C26.7517 36.6545 26.1123 37.3888 25.6712 38.2414C25.23 39.094 24.9998 40.04 25 41L23 40.999C22.9997 39.7779 23.2789 38.5729 23.8163 37.4764C24.3537 36.3799 25.1349 35.4209 26.1002 34.673C27.0655 33.9251 28.1892 33.4081 29.3852 33.1616C30.5811 32.9152 31.8177 32.9457 33 33.251V33.252ZM31 32C27.685 32 25 29.315 25 26C25 22.685 27.685 20 31 20C34.315 20 37 22.685 37 26C37 29.315 34.315 32 31 32ZM31 30C33.21 30 35 28.21 35 26C35 23.79 33.21 22 31 22C28.79 22 27 23.79 27 26C27 28.21 28.79 30 31 30ZM37 36V33H39V36H42V38H39V41H37V38H34V36H37Z" fill="#F0F9F1"/>
</svg>
