<svg width="102" height="102" viewBox="0 0 102 102" fill="none" xmlns="http://www.w3.org/2000/svg">
<circle cx="51" cy="51" r="46" fill="#25D366" fill-opacity="0.17" stroke="white" stroke-opacity="0.58" stroke-width="9.03571"/>
<path d="M42.1531 37.6582H57.2494C57.4066 37.6582 57.5574 37.5983 57.6686 37.4917C57.7797 37.3851 57.8422 37.2404 57.8422 37.0897C57.8422 36.9389 57.7797 36.7943 57.6686 36.6876C57.5574 36.581 57.4066 36.5211 57.2494 36.5211H42.1531C41.9959 36.5211 41.8451 36.581 41.734 36.6876C41.6228 36.7943 41.5603 36.9389 41.5603 37.0897C41.5603 37.2404 41.6228 37.3851 41.734 37.4917C41.8451 37.5983 41.9959 37.6582 42.1531 37.6582ZM42.1531 44.4807H57.2494C57.4066 44.4807 57.5574 44.4208 57.6686 44.3142C57.7797 44.2076 57.8422 44.063 57.8422 43.9122C57.8422 43.7614 57.7797 43.6168 57.6686 43.5102C57.5574 43.4035 57.4066 43.3436 57.2494 43.3436H42.1531C41.9959 43.3436 41.8451 43.4035 41.734 43.5102C41.6228 43.6168 41.5603 43.7614 41.5603 43.9122C41.5603 44.063 41.6228 44.2076 41.734 44.3142C41.8451 44.4208 41.9959 44.4807 42.1531 44.4807ZM42.1531 41.0695H57.2494C57.4066 41.0695 57.5574 41.0096 57.6686 40.9029C57.7797 40.7963 57.8422 40.6517 57.8422 40.5009C57.8422 40.3501 57.7797 40.2055 57.6686 40.0989C57.5574 39.9923 57.4066 39.9324 57.2494 39.9324H42.1531C41.9959 39.9324 41.8451 39.9923 41.734 40.0989C41.6228 40.2055 41.5603 40.3501 41.5603 40.5009C41.5603 40.6517 41.6228 40.7963 41.734 40.9029C41.8451 41.0096 41.9959 41.0695 42.1531 41.0695V41.0695ZM69.4141 38.9176L68.5758 38.1136C68.2423 37.7937 67.79 37.614 67.3183 37.614C66.8467 37.614 66.3943 37.7937 66.0608 38.1136L63.2958 40.7655V34.4365C63.2949 33.6828 62.9824 32.9602 62.4267 32.4273C61.8711 31.8944 61.1177 31.5946 60.3319 31.5938H39.0706C38.2848 31.5946 37.5315 31.8944 36.9758 32.4273C36.4201 32.9602 36.1076 33.6828 36.1067 34.4365V63.9628H32.9053C32.8274 63.9628 32.7504 63.9775 32.6784 64.006C32.6065 64.0346 32.5412 64.0765 32.4861 64.1293C32.4311 64.1821 32.3874 64.2448 32.3576 64.3137C32.3278 64.3827 32.3125 64.4566 32.3125 64.5313V67.5635C32.3134 68.3172 32.6259 69.0398 33.1816 69.5727C33.7372 70.1056 34.4906 70.4054 35.2764 70.4062H60.4105C60.432 70.4062 60.4535 70.405 60.4749 70.4028C61.235 70.3667 61.9516 70.052 62.4766 69.5235C63.0016 68.9951 63.2949 68.2935 63.2958 67.5635V47.1979L69.4141 41.3298C69.7472 41.0097 69.9342 40.5759 69.9342 40.1237C69.9342 39.6715 69.7472 39.2377 69.4141 38.9176V38.9176ZM35.2764 69.2692C34.8049 69.2686 34.3529 69.0888 34.0195 68.769C33.6861 68.4493 33.4986 68.0157 33.4981 67.5635V65.0999H57.1304V67.4498C57.13 68.1096 57.3608 68.7504 57.7859 69.2692H35.2764ZM62.1102 64.524C62.1102 64.5265 62.1098 64.5288 62.1098 64.5313V67.4498C62.1098 67.9323 61.91 68.3951 61.5542 68.7363C61.1985 69.0775 60.716 69.2692 60.2129 69.2692C59.7098 69.2692 59.2274 69.0775 58.8716 68.7363C58.5159 68.3951 58.316 67.9323 58.316 67.4498V64.5313C58.316 64.4566 58.3007 64.3827 58.2709 64.3137C58.2411 64.2448 58.1975 64.1821 58.1424 64.1293C58.0874 64.0765 58.022 64.0346 57.9501 64.006C57.8782 63.9775 57.8011 63.9628 57.7232 63.9628C57.7099 63.9628 57.6968 63.9638 57.6837 63.9647C57.6706 63.9638 57.6575 63.9628 57.6442 63.9628H37.2923V34.4365C37.2928 33.9843 37.4804 33.5507 37.8137 33.231C38.1471 32.9112 38.5992 32.7314 39.0706 32.7308H60.3319C60.8034 32.7314 61.2554 32.9112 61.5888 33.231C61.9222 33.5507 62.1097 33.9843 62.1102 34.4365V41.9026L51.1232 52.4403H42.1531C41.9959 52.4403 41.8451 52.5002 41.734 52.6068C41.6228 52.7135 41.5603 52.8581 41.5603 53.0089C41.5603 53.1596 41.6228 53.3042 41.734 53.4109C41.8451 53.5175 41.9959 53.5774 42.1531 53.5774H49.9376L47.6176 55.8025C47.6022 55.8174 47.5877 55.833 47.5741 55.8495L47.5724 55.8516H42.1531C41.9959 55.8516 41.8451 55.9115 41.734 56.0181C41.6228 56.1247 41.5603 56.2693 41.5603 56.4201C41.5603 56.5709 41.6228 56.7155 41.734 56.8221C41.8451 56.9287 41.9959 56.9886 42.1531 56.9886H47.1394L46.349 59.2628H42.1531C41.9959 59.2628 41.8451 59.3227 41.734 59.4293C41.6228 59.536 41.5603 59.6806 41.5603 59.8314C41.5603 59.9821 41.6228 60.1268 41.734 60.2334C41.8451 60.34 41.9959 60.3999 42.1531 60.3999H46.5793C46.6221 60.3998 46.6648 60.3953 46.7066 60.3864C46.7941 60.3976 46.8832 60.3893 46.9668 60.3621L50.7393 59.156C50.7432 59.1548 50.7468 59.153 50.7506 59.1517C50.765 59.1467 50.7793 59.1413 50.7935 59.1353C50.7995 59.1327 50.8055 59.13 50.8115 59.1272C50.8252 59.1208 50.8387 59.1137 50.8521 59.1062C50.8576 59.1031 50.8632 59.1001 50.8687 59.0968C50.8822 59.0885 50.8953 59.0796 50.9082 59.0702C50.9128 59.0669 50.9177 59.0639 50.9222 59.0604C50.9392 59.0473 50.9556 59.0334 50.971 59.0187L53.0876 56.9886H57.2494C57.4066 56.9886 57.5574 56.9287 57.6686 56.8221C57.7797 56.7155 57.8422 56.5709 57.8422 56.4201C57.8422 56.2693 57.7797 56.1247 57.6686 56.0181C57.5574 55.9115 57.4066 55.8516 57.2494 55.8516H54.2732L62.1102 48.335V64.524ZM48.2959 57.2571L49.4544 58.3682L47.7166 58.9238L48.2959 57.2571ZM50.5518 57.8125L48.8752 56.2045L63.1209 42.5414L63.1233 42.5391L64.6726 41.0532L66.3492 42.6612L50.5518 57.8125ZM68.5758 40.5257L67.1876 41.8571L65.511 40.2491L66.8992 38.9177C66.9542 38.8649 67.0196 38.823 67.0915 38.7944C67.1634 38.7658 67.2405 38.7511 67.3183 38.7511C67.3962 38.7511 67.4732 38.7658 67.5452 38.7944C67.6171 38.823 67.6824 38.8649 67.7374 38.9177L68.5758 39.7217C68.6868 39.8284 68.7491 39.973 68.7491 40.1237C68.7491 40.2744 68.6868 40.419 68.5758 40.5257V40.5257Z" fill="#0FC94B" stroke="#0FC94B" stroke-width="0.821429"/>
</svg>
