<svg width="24" height="26" viewBox="0 0 24 26" fill="none" xmlns="http://www.w3.org/2000/svg">
<path d="M14.6693 10.3333L12.0026 11.6667M12.0026 11.6667L9.33594 10.3333M12.0026 11.6667V15M22.6693 6.33333L20.0026 7.66667M22.6693 6.33333L20.0026 5M22.6693 6.33333V9.66667M14.6693 2.33333L12.0026 1L9.33594 2.33333M1.33594 6.33333L4.0026 5M1.33594 6.33333L4.0026 7.66667M1.33594 6.33333V9.66667M12.0026 25L9.33594 23.6667M12.0026 25L14.6693 23.6667M12.0026 25V21.6667M4.0026 21L1.33594 19.6667V16.3333M20.0026 21L22.6693 19.6667V16.3333" stroke="#0FC94B" stroke-width="1.33333" stroke-linecap="round" stroke-linejoin="round"/>
</svg>
