<svg width="18" height="17" viewBox="0 0 18 17" fill="none" xmlns="http://www.w3.org/2000/svg">
<path d="M13.1667 3.50033H17.3333V5.16699H15.6667V16.0003C15.6667 16.2213 15.5789 16.4333 15.4226 16.5896C15.2663 16.7459 15.0544 16.8337 14.8333 16.8337H3.16667C2.94566 16.8337 2.7337 16.7459 2.57742 16.5896C2.42114 16.4333 2.33334 16.2213 2.33334 16.0003V5.16699H0.666672V3.50033H4.83334V1.00033C4.83334 0.779312 4.92114 0.56735 5.07742 0.41107C5.2337 0.25479 5.44566 0.166992 5.66667 0.166992H12.3333C12.5544 0.166992 12.7663 0.25479 12.9226 0.41107C13.0789 0.56735 13.1667 0.779312 13.1667 1.00033V3.50033ZM14 5.16699H4.00001V15.167H14V5.16699ZM6.50001 7.66699H8.16667V12.667H6.50001V7.66699ZM9.83334 7.66699H11.5V12.667H9.83334V7.66699ZM6.50001 1.83366V3.50033H11.5V1.83366H6.50001Z" fill="#E43030"/>
</svg>
