<svg width="31" height="26" viewBox="0 0 31 26" fill="none" xmlns="http://www.w3.org/2000/svg">
<path d="M5.66927 10.0013C6.02289 10.0013 6.36203 10.1418 6.61208 10.3918C6.86213 10.6419 7.0026 10.981 7.0026 11.3346C9.09746 11.3315 11.1319 12.0363 12.7759 13.3346H15.6693C17.4466 13.3346 19.0426 14.108 20.1413 15.3346H24.3359C25.5963 15.3343 26.8309 15.6912 27.8966 16.364C28.9624 17.0368 29.8156 17.998 30.3573 19.136C27.2039 23.2973 22.0986 26.0013 16.3359 26.0013C12.6159 26.0013 9.46927 25.1973 6.9226 23.7906C6.82933 24.048 6.65892 24.2704 6.43463 24.4274C6.21033 24.5844 5.94306 24.6684 5.66927 24.668H1.66927C1.31565 24.668 0.97651 24.5275 0.726462 24.2774C0.476413 24.0274 0.335938 23.6883 0.335938 23.3346V11.3346C0.335937 10.981 0.476413 10.6419 0.726462 10.3918C0.97651 10.1418 1.31565 10.0013 1.66927 10.0013H5.66927ZM7.00394 14.0013L7.0026 20.6973L7.0626 20.74C9.45594 22.42 12.5733 23.3346 16.3359 23.3346C20.3413 23.3346 24.0679 21.7933 26.7826 19.1613L26.9599 18.984L26.7999 18.8506C26.1703 18.3575 25.4071 18.0649 24.6093 18.0106L24.3359 18.0013H21.5213C21.6173 18.4306 21.6693 18.876 21.6693 19.3346V20.668H9.66927V18.0013L18.7226 18L18.6773 17.896C18.4217 17.362 18.0287 16.9057 17.5385 16.5739C17.0483 16.2421 16.4786 16.0468 15.8879 16.008L15.6693 16.0013H11.7626C11.143 15.3676 10.403 14.8642 9.58597 14.5207C8.76897 14.1773 7.89153 14.0007 7.00527 14.0013H7.00394ZM4.33594 12.668H3.0026V22.0013H4.33594V12.668ZM23.0026 4.66797C24.0635 4.66797 25.0809 5.0894 25.831 5.83954C26.5812 6.58969 27.0026 7.6071 27.0026 8.66797C27.0026 9.72884 26.5812 10.7463 25.831 11.4964C25.0809 12.2465 24.0635 12.668 23.0026 12.668C21.9417 12.668 20.9243 12.2465 20.1742 11.4964C19.424 10.7463 19.0026 9.72884 19.0026 8.66797C19.0026 7.6071 19.424 6.58969 20.1742 5.83954C20.9243 5.0894 21.9417 4.66797 23.0026 4.66797ZM23.0026 7.33464C22.649 7.33464 22.3098 7.47511 22.0598 7.72516C21.8097 7.97521 21.6693 8.31435 21.6693 8.66797C21.6693 9.02159 21.8097 9.36073 22.0598 9.61078C22.3098 9.86083 22.649 10.0013 23.0026 10.0013C23.3562 10.0013 23.6954 9.86083 23.9454 9.61078C24.1955 9.36073 24.3359 9.02159 24.3359 8.66797C24.3359 8.31435 24.1955 7.97521 23.9454 7.72516C23.6954 7.47511 23.3562 7.33464 23.0026 7.33464ZM13.6693 0.667969C14.7301 0.667969 15.7476 1.0894 16.4977 1.83954C17.2478 2.58969 17.6693 3.6071 17.6693 4.66797C17.6693 5.72883 17.2478 6.74625 16.4977 7.4964C15.7476 8.24654 14.7301 8.66797 13.6693 8.66797C12.6084 8.66797 11.591 8.24654 10.8408 7.4964C10.0907 6.74625 9.66927 5.72883 9.66927 4.66797C9.66927 3.6071 10.0907 2.58969 10.8408 1.83954C11.591 1.0894 12.6084 0.667969 13.6693 0.667969ZM13.6693 3.33464C13.3156 3.33464 12.9765 3.47511 12.7265 3.72516C12.4764 3.97521 12.3359 4.31435 12.3359 4.66797C12.3359 5.02159 12.4764 5.36073 12.7265 5.61078C12.9765 5.86083 13.3156 6.0013 13.6693 6.0013C14.0229 6.0013 14.362 5.86083 14.6121 5.61078C14.8621 5.36073 15.0026 5.02159 15.0026 4.66797C15.0026 4.31435 14.8621 3.97521 14.6121 3.72516C14.362 3.47511 14.0229 3.33464 13.6693 3.33464Z" fill="#0FC94B"/>
</svg>
