<svg width="63" height="62" viewBox="0 0 63 62" fill="none" xmlns="http://www.w3.org/2000/svg">
<ellipse cx="31.4965" cy="30.8575" rx="30.7778" ry="30.8575" fill="#25D366"/>
<path d="M23.5938 26C23.5938 25.606 23.6713 25.2159 23.8221 24.8519C23.9729 24.488 24.1939 24.1573 24.4724 23.8787C24.751 23.6001 25.0817 23.3791 25.4457 23.2284C25.8097 23.0776 26.1998 23 26.5938 23C26.9877 23 27.3778 23.0776 27.7418 23.2284C28.1058 23.3791 28.4365 23.6001 28.7151 23.8787C28.9936 24.1573 29.2146 24.488 29.3654 24.8519C29.5162 25.2159 29.5938 25.606 29.5938 26C29.5938 26.7956 29.2777 27.5587 28.7151 28.1213C28.1525 28.6839 27.3894 29 26.5938 29C25.7981 29 25.035 28.6839 24.4724 28.1213C23.9098 27.5587 23.5938 26.7956 23.5938 26ZM26.5938 21C25.2677 21 23.9959 21.5268 23.0582 22.4645C22.1205 23.4021 21.5938 24.6739 21.5938 26C21.5938 27.3261 22.1205 28.5979 23.0582 29.5355C23.9959 30.4732 25.2677 31 26.5938 31C27.9198 31 29.1916 30.4732 30.1293 29.5355C31.067 28.5979 31.5938 27.3261 31.5938 26C31.5938 24.6739 31.067 23.4021 30.1293 22.4645C29.1916 21.5268 27.9198 21 26.5938 21ZM36.5938 27C36.5938 26.4696 36.8045 25.9609 37.1795 25.5858C37.5546 25.2107 38.0633 25 38.5938 25C39.1242 25 39.6329 25.2107 40.008 25.5858C40.383 25.9609 40.5938 26.4696 40.5938 27C40.5938 27.5304 40.383 28.0391 40.008 28.4142C39.6329 28.7893 39.1242 29 38.5938 29C38.0633 29 37.5546 28.7893 37.1795 28.4142C36.8045 28.0391 36.5938 27.5304 36.5938 27ZM38.5938 23C37.5329 23 36.5155 23.4214 35.7653 24.1716C35.0152 24.9217 34.5938 25.9391 34.5938 27C34.5938 28.0609 35.0152 29.0783 35.7653 29.8284C36.5155 30.5786 37.5329 31 38.5938 31C39.6546 31 40.672 30.5786 41.4222 29.8284C42.1723 29.0783 42.5938 28.0609 42.5938 27C42.5938 25.9391 42.1723 24.9217 41.4222 24.1716C40.672 23.4214 39.6546 23 38.5938 23ZM18.5938 36C18.5938 35.2044 18.9098 34.4413 19.4724 33.8787C20.035 33.3161 20.7981 33 21.5938 33H31.5938C32.3894 33 33.1525 33.3161 33.7151 33.8787C34.2777 34.4413 34.5938 35.2044 34.5938 36V36.224C34.5916 36.3156 34.585 36.4071 34.5737 36.498C34.4598 37.4676 34.0989 38.3917 33.5257 39.182C32.4317 40.692 30.3517 42 26.5938 42C22.8377 42 20.7578 40.692 19.6597 39.182C19.0873 38.3915 18.7271 37.4674 18.6137 36.498C18.6038 36.4069 18.5971 36.3155 18.5938 36.224V36ZM20.5938 36.18V36.194L20.6017 36.292C20.6792 36.9111 20.9117 37.5007 21.2778 38.006C21.9297 38.902 23.3498 40 26.5938 40C29.8377 40 31.2577 38.902 31.9097 38.006C32.2758 37.5007 32.5083 36.9111 32.5858 36.292C32.5893 36.2587 32.592 36.2254 32.5938 36.192V36C32.5938 35.7348 32.4884 35.4804 32.3009 35.2929C32.1133 35.1054 31.859 35 31.5938 35H21.5938C21.3285 35 21.0742 35.1054 20.8866 35.2929C20.6991 35.4804 20.5938 35.7348 20.5938 36V36.18ZM38.5938 40C37.4177 40 36.4538 39.82 35.6737 39.524C35.9944 38.9367 36.2371 38.3101 36.3958 37.66C36.9317 37.862 37.6437 38 38.5938 38C40.8317 38 41.7498 37.236 42.1537 36.668C42.3899 36.3367 42.5397 35.9518 42.5898 35.548L42.5938 35.492C42.5917 35.3608 42.538 35.2357 42.4445 35.1436C42.351 35.0516 42.225 35 42.0938 35H36.4937C36.3461 34.2747 36.0386 33.5915 35.5938 33H42.0938C43.4737 33 44.5938 34.12 44.5938 35.5V35.534C44.5914 35.6069 44.586 35.6796 44.5777 35.752C44.493 36.5016 44.2191 37.2173 43.7817 37.832C42.9377 39.014 41.3558 40 38.5938 40Z" fill="#FAFAFA"/>
</svg>
